<svg id="Camada_1" data-name="Camada 1" xmlns="http://www.w3.org/2000/svg" viewBox="0 0 110.09 147.12"><path d="M129.91,149.56H24.13A2.15,2.15,0,0,1,22,147.41V4.59a2.15,2.15,0,0,1,2.15-2.15H129.91a2.15,2.15,0,0,1,2.15,2.15V147.41A2.15,2.15,0,0,1,129.91,149.56Z" transform="translate(-21.98 -2.44)"/><polygon points="105.84 17.51 105.84 3.5 70.81 3.5 56.79 3.5 56.79 17.51 56.79 94.58 53.29 94.58 53.29 3.5 39.28 3.5 39.28 94.58 18.26 94.58 18.26 3.5 4.25 3.5 4.25 143.62 18.26 143.62 18.26 108.59 39.28 108.59 39.28 143.62 53.29 143.62 53.29 108.59 56.79 108.59 56.79 143.62 70.81 143.62 70.81 108.59 105.84 108.59 105.84 94.58 70.81 94.58 70.81 17.51 105.84 17.51" fill="#fff"/></svg>