<svg id="logo" xmlns="http://www.w3.org/2000/svg" viewBox="0 0 327 437"><defs><style>.cls-1{fill:#fff;}</style></defs><polygon class="cls-1" points="308.5 58.5 308.5 18.5 208.5 18.5 168.5 18.5 168.5 58.5 168.5 278.5 158.5 278.5 158.5 18.5 118.5 18.5 118.5 278.5 58.5 278.5 58.5 18.5 18.5 18.5 18.5 418.5 58.5 418.5 58.5 318.5 118.5 318.5 118.5 418.5 158.5 418.5 158.5 318.5 168.5 318.5 168.5 418.5 208.5 418.5 208.5 318.5 308.5 318.5 308.5 278.5 208.5 278.5 208.5 58.5 308.5 58.5"/><path class="cls-1" d="M563.5,593.5h-327v-437h327Zm-320-7h313v-423h-313Z" transform="translate(-236.5 -156.5)"/></svg>